<svg width="168" height="40" viewBox="0 0 168 40" fill="none" xmlns="http://www.w3.org/2000/svg">
<rect width="40" height="40" rx="20" fill="url(#paint0_linear_6104_1572)"/>
<path d="M16 30L17 23H12L21 10H23L22 18H28L18 30H16Z" fill="white"/>
<path d="M53.68 29V11.72H64.24V14.984H56.944V18.728H62.8V21.992H56.944V29H53.68ZM66.04 29V11.36H69.304V29H66.04ZM75.904 29.36C74.976 29.36 74.19 29.182 73.546 28.826C72.902 28.47 72.414 27.994 72.082 27.398C71.75 26.802 71.584 26.144 71.584 25.424C71.584 24.824 71.676 24.276 71.86 23.78C72.044 23.284 72.342 22.846 72.754 22.466C73.166 22.086 73.72 21.768 74.416 21.512C74.896 21.336 75.468 21.18 76.132 21.044C76.796 20.908 77.548 20.778 78.388 20.654C79.228 20.53 80.152 20.392 81.16 20.24L79.984 20.888C79.984 20.12 79.8 19.556 79.432 19.196C79.064 18.836 78.448 18.656 77.584 18.656C77.104 18.656 76.604 18.772 76.084 19.004C75.564 19.236 75.2 19.648 74.992 20.24L72.04 19.304C72.368 18.232 72.984 17.36 73.888 16.688C74.792 16.016 76.024 15.68 77.584 15.68C78.728 15.68 79.744 15.856 80.632 16.208C81.52 16.56 82.192 17.168 82.648 18.032C82.904 18.512 83.056 18.992 83.104 19.472C83.152 19.952 83.176 20.488 83.176 21.08V29H80.32V26.336L80.728 26.888C80.096 27.76 79.414 28.39 78.682 28.778C77.95 29.166 77.024 29.36 75.904 29.36ZM76.6 26.792C77.2 26.792 77.706 26.686 78.118 26.474C78.53 26.262 78.858 26.02 79.102 25.748C79.346 25.476 79.512 25.248 79.6 25.064C79.768 24.712 79.866 24.302 79.894 23.834C79.922 23.366 79.936 22.976 79.936 22.664L80.896 22.904C79.928 23.064 79.144 23.198 78.544 23.306C77.944 23.414 77.46 23.512 77.092 23.6C76.724 23.688 76.4 23.784 76.12 23.888C75.8 24.016 75.542 24.154 75.346 24.302C75.15 24.45 75.006 24.612 74.914 24.788C74.822 24.964 74.776 25.16 74.776 25.376C74.776 25.672 74.85 25.926 74.998 26.138C75.146 26.35 75.356 26.512 75.628 26.624C75.9 26.736 76.224 26.792 76.6 26.792ZM90.76 29.36C89.128 29.36 87.81 28.99 86.806 28.25C85.802 27.51 85.192 26.464 84.976 25.112L88.312 24.608C88.448 25.216 88.75 25.692 89.218 26.036C89.686 26.38 90.28 26.552 91 26.552C91.592 26.552 92.048 26.438 92.368 26.21C92.688 25.982 92.848 25.664 92.848 25.256C92.848 25 92.784 24.794 92.656 24.638C92.528 24.482 92.242 24.328 91.798 24.176C91.354 24.024 90.664 23.824 89.728 23.576C88.672 23.304 87.828 23 87.196 22.664C86.564 22.328 86.108 21.926 85.828 21.458C85.548 20.99 85.408 20.424 85.408 19.76C85.408 18.928 85.62 18.206 86.044 17.594C86.468 16.982 87.066 16.51 87.838 16.178C88.61 15.846 89.52 15.68 90.568 15.68C91.584 15.68 92.484 15.836 93.268 16.148C94.052 16.46 94.686 16.904 95.17 17.48C95.654 18.056 95.952 18.736 96.064 19.52L92.728 20.12C92.672 19.64 92.464 19.26 92.104 18.98C91.744 18.7 91.256 18.536 90.64 18.488C90.04 18.448 89.558 18.528 89.194 18.728C88.83 18.928 88.648 19.216 88.648 19.592C88.648 19.816 88.726 20.004 88.882 20.156C89.038 20.308 89.362 20.464 89.854 20.624C90.346 20.784 91.096 20.992 92.104 21.248C93.088 21.504 93.878 21.802 94.474 22.142C95.07 22.482 95.504 22.89 95.776 23.366C96.048 23.842 96.184 24.416 96.184 25.088C96.184 26.416 95.704 27.46 94.744 28.22C93.784 28.98 92.456 29.36 90.76 29.36ZM107.056 29V22.88C107.056 22.584 107.04 22.206 107.008 21.746C106.976 21.286 106.876 20.824 106.708 20.36C106.54 19.896 106.266 19.508 105.886 19.196C105.506 18.884 104.968 18.728 104.272 18.728C103.992 18.728 103.692 18.772 103.372 18.86C103.052 18.948 102.752 19.118 102.472 19.37C102.192 19.622 101.962 19.992 101.782 20.48C101.602 20.968 101.512 21.616 101.512 22.424L99.64 21.536C99.64 20.512 99.848 19.552 100.264 18.656C100.68 17.76 101.306 17.036 102.142 16.484C102.978 15.932 104.032 15.656 105.304 15.656C106.32 15.656 107.148 15.828 107.788 16.172C108.428 16.516 108.926 16.952 109.282 17.48C109.638 18.008 109.892 18.558 110.044 19.13C110.196 19.702 110.288 20.224 110.32 20.696C110.352 21.168 110.368 21.512 110.368 21.728V29H107.056ZM98.2 29V11.72H101.104V20.6H101.512V29H98.2ZM117.088 29V11.72H127.648V14.984H120.352V18.728H126.208V21.992H120.352V29H117.088ZM129.448 29V11.36H132.712V29H129.448ZM141.544 29.36C140.24 29.36 139.096 29.068 138.112 28.484C137.128 27.9 136.362 27.094 135.814 26.066C135.266 25.038 134.992 23.856 134.992 22.52C134.992 21.168 135.272 19.978 135.832 18.95C136.392 17.922 137.164 17.12 138.148 16.544C139.132 15.968 140.264 15.68 141.544 15.68C142.848 15.68 143.994 15.972 144.982 16.556C145.97 17.14 146.74 17.946 147.292 18.974C147.844 20.002 148.12 21.184 148.12 22.52C148.12 23.864 147.842 25.05 147.286 26.078C146.73 27.106 145.958 27.91 144.97 28.49C143.982 29.07 142.84 29.36 141.544 29.36ZM141.544 26.312C142.592 26.312 143.374 25.958 143.89 25.25C144.406 24.542 144.664 23.632 144.664 22.52C144.664 21.368 144.402 20.448 143.878 19.76C143.354 19.072 142.576 18.728 141.544 18.728C140.832 18.728 140.248 18.888 139.792 19.208C139.336 19.528 138.998 19.972 138.778 20.54C138.558 21.108 138.448 21.768 138.448 22.52C138.448 23.68 138.71 24.602 139.234 25.286C139.758 25.97 140.528 26.312 141.544 26.312ZM152.44 29L148.48 16.016L151.672 16.04L154.024 23.768L156.412 16.04H159.124L161.512 23.768L163.864 16.04H167.056L163.096 29H160.6L157.768 20.552L154.936 29H152.44Z" fill="#2A3439"/>
<defs>
<linearGradient id="paint0_linear_6104_1572" x1="0" y1="0" x2="40" y2="40" gradientUnits="userSpaceOnUse">
<stop stop-color="#7C3AED"/>
<stop offset="1" stop-color="#6D28D9"/>
</linearGradient>
</defs>
</svg>
